<svg width="42" height="40" viewBox="0 0 42 40" fill="none" xmlns="http://www.w3.org/2000/svg">
<g clip-path="url(#clip0_172_8288)">
<path d="M33.4417 0.620712H14.1743V8.61075H37.5567V4.73413C37.5567 2.46577 35.7107 0.620712 33.4417 0.620712Z" fill="#FFC4D5"/>
<path d="M22.5352 9.84026H0V2.42636C0 -0.290283 2.21068 -2.5 4.92828 -2.5H12.1336C12.8497 -2.5 13.5396 -2.34908 14.1664 -2.06549C15.0418 -1.67104 15.7939 -1.02087 16.3213 -0.171402L22.5352 9.84026Z" fill="#FF4646"/>
<path d="M42 11.5001V35.3815C42 37.6527 40.1511 39.5 37.8789 39.5H4.12111C1.84891 39.5 0 37.6527 0 35.3815V7.3806H37.8789C40.1511 7.3806 42 9.22855 42 11.5001Z" fill="#FF6565"/>
<path d="M42 11.5001V35.3815C42 37.6527 40.1511 39.5 37.8789 39.5H21V7.3806H37.8789C40.1511 7.3806 42 9.22855 42 11.5001Z" fill="#FF4646"/>
<path d="M32.048 23.4398C32.048 29.5322 27.0919 34.4887 21.0001 34.4887C14.9083 34.4887 9.95215 29.5322 9.95215 23.4398C9.95215 17.3484 14.9083 12.3919 21.0001 12.3919C27.0919 12.3919 32.048 17.3484 32.048 23.4398Z" fill="white"/>
<path d="M32.0479 23.4398C32.0479 29.5322 27.0918 34.4887 21 34.4887V12.3919C27.0918 12.3919 32.0479 17.3484 32.0479 23.4398Z" fill="#FDEDF7"/>
<path fill-rule="evenodd" clip-rule="evenodd" d="M17.2784 18C15.9276 18 15.1566 19.5421 15.9671 20.6228C16.313 21.084 16.5 21.645 16.5 22.2215V26.5C16.5 28.2489 17.9177 29.6667 19.6666 29.6667H22.3333C24.0822 29.6667 25.5 28.2489 25.5 26.5V22.2215C25.5 21.645 25.687 21.084 26.0329 20.6228C26.8434 19.5421 26.0723 18 24.7215 18H17.2784ZM22.3332 21.3333C22.6093 21.3333 22.8332 21.5572 22.8332 21.8333V25.8333C22.8332 26.1095 22.6093 26.3333 22.3332 26.3333C22.057 26.3333 21.8332 26.1095 21.8332 25.8333V21.8333C21.8332 21.5572 22.057 21.3333 22.3332 21.3333ZM20.1665 21.8333C20.1665 21.5572 19.9426 21.3333 19.6665 21.3333C19.3904 21.3333 19.1665 21.5572 19.1665 21.8333L19.1665 25.8333C19.1665 26.1095 19.3904 26.3333 19.6665 26.3333C19.9426 26.3333 20.1665 26.1095 20.1665 25.8333V21.8333Z" fill="#FF6565"/>
<path d="M23.6666 18.5L23.3038 17.4117C23.1223 16.8672 22.6128 16.5 22.0389 16.5H19.9609C19.387 16.5 18.8775 16.8672 18.696 17.4117L18.3333 18.5" stroke="#FF6565" stroke-linecap="round"/>
</g>
<defs>
<clipPath id="clip0_172_8288">
<rect width="42" height="42" fill="white" transform="translate(0 -2.5)"/>
</clipPath>
</defs>
</svg>
