<svg width="17" height="17" viewBox="0 0 17 17" fill="none" xmlns="http://www.w3.org/2000/svg">
<path fill-rule="evenodd" clip-rule="evenodd" d="M4.92158 4.17303C3.62273 4.17303 2.88132 5.65586 3.66063 6.69494C3.99324 7.13843 4.17304 7.67783 4.17304 8.23219V12.3461C4.17304 14.0277 5.53628 15.391 7.21792 15.391H9.78202C11.4637 15.391 12.8269 14.0277 12.8269 12.3461V8.23219C12.8269 7.67783 13.0067 7.13843 13.3393 6.69494C14.1186 5.65586 13.3772 4.17303 12.0784 4.17303H4.92158ZM9.78194 7.37819C10.0475 7.37819 10.2627 7.59344 10.2627 7.85896V11.7051C10.2627 11.9706 10.0475 12.1859 9.78194 12.1859C9.51642 12.1859 9.30117 11.9706 9.30117 11.7051L9.30117 7.85896C9.30117 7.59344 9.51642 7.37819 9.78194 7.37819ZM7.69861 7.85896C7.69861 7.59344 7.48336 7.37819 7.21784 7.37819C6.95232 7.37819 6.73707 7.59344 6.73707 7.85896L6.73707 11.7051C6.73707 11.9706 6.95232 12.1859 7.21784 12.1859C7.48336 12.1859 7.69861 11.9706 7.69861 11.7051L7.69861 7.85896Z" fill="#FF6565"/>
<path d="M11.0642 4.65379L10.7154 3.60734C10.5409 3.08383 10.051 2.73071 9.49916 2.73071H7.50111C6.94928 2.73071 6.45936 3.08383 6.28485 3.60734L5.93604 4.65379" stroke="#FF6565" stroke-width="0.961538" stroke-linecap="round"/>
</svg>
