<svg width="28" height="7" viewBox="0 0 28 7" fill="none" xmlns="http://www.w3.org/2000/svg">
<path fill-rule="evenodd" clip-rule="evenodd" d="M3.2771 7C5.04682 7 6.48975 5.42754 6.48975 3.5C6.48975 1.57246 5.04682 0 3.2771 0C1.50739 0 0.0644531 1.57246 0.0644531 3.5C0.0644531 5.42801 1.50782 7 3.2771 7Z" fill="#00ADD9"/>
<path fill-rule="evenodd" clip-rule="evenodd" d="M1.42551 4.28595C1.46604 4.85942 1.79497 5.30044 2.40198 5.33144C2.98571 5.3615 3.569 5.37136 4.1523 5.33144C4.68817 5.29528 5.08824 4.85942 5.12876 4.28595C5.14989 3.99194 5.15851 3.69792 5.15593 3.40438C5.02099 2.6111 4.4101 2.58292 4.35276 2.58198H4.35104H4.34931H4.34888H2.2955C2.2235 2.58198 2.16444 2.51763 2.16444 2.4392C2.16444 2.36029 2.22307 2.29642 2.2955 2.29642H4.35535C4.33638 1.76475 3.79706 1.66518 3.54012 1.64827L3.4069 1.64498H3.40647C3.07107 1.63982 2.73652 1.64827 2.40198 1.67692C1.7829 1.72952 1.46604 2.14894 1.42551 2.72241C1.38844 3.24375 1.38844 3.76461 1.42551 4.28595ZM4.51615 3.98442V4.17464C4.51615 4.24556 4.4627 4.3038 4.3976 4.3038C4.3325 4.3038 4.27904 4.24556 4.27904 4.17464V3.98395C4.22688 3.94591 4.19282 3.88297 4.19282 3.81252C4.19282 3.69604 4.28465 3.60211 4.3976 3.60211C4.51055 3.60211 4.60238 3.69651 4.60238 3.81252C4.60238 3.88344 4.56832 3.94591 4.51615 3.98442Z" fill="white"/>
<path fill-rule="evenodd" clip-rule="evenodd" d="M22.6969 3.18289L22.6952 3.81507C22.6952 3.81507 22.4969 4.23965 21.8119 4.34392C21.1268 4.44771 21.1264 3.98321 21.176 3.86344C21.2256 3.74321 21.3868 3.57788 21.9537 3.4769C22.5586 3.36888 22.6969 3.18289 22.6969 3.18289ZM23.504 2.57419C23.504 1.59633 22.6409 1.14075 21.8683 1.22153C21.1493 1.29715 20.5453 1.66256 20.3595 2.48026L21.104 2.67987C21.3394 1.94718 22.221 1.73254 22.5943 2.25622C22.6944 2.39853 22.6525 2.54695 22.5055 2.62961C22.2865 2.75267 21.8683 2.71697 21.442 2.84425C19.6391 3.38297 20.2064 5.179 21.7002 5.13297C22.1783 5.11841 22.5228 4.88028 22.7564 4.64216L22.7642 5.04232H23.5036V2.57419H23.504ZM9.39369 2.12847C8.85178 2.12847 8.41161 2.60942 8.41161 3.20355C8.41161 3.79722 8.85135 4.27863 9.39369 4.27863C9.93646 4.27863 10.3762 3.79769 10.3762 3.20355C10.3762 2.60942 9.93646 2.12847 9.39369 2.12847ZM11.3182 1.33707V4.40779V4.96764C11.3182 6.23764 10.5068 6.99992 9.4756 6.99992C8.77504 6.99992 8.26245 6.8205 7.76494 6.22777L8.37626 5.62894C8.67157 6.00797 9.02681 6.09955 9.46266 6.09955C9.98647 6.09955 10.3758 5.64021 10.3758 5.07708V4.70463C10.0727 4.99254 9.67994 5.16631 9.25099 5.16631C8.29176 5.16631 7.51404 4.29742 7.51404 3.22563C7.51404 2.15383 8.29176 1.28494 9.25099 1.28494C9.67994 1.28494 10.0727 1.45872 10.3758 1.74663V1.33707H11.3182ZM27.9354 1.27649L26.9257 1.27461L25.9277 3.65866L24.7766 1.27414H23.7639L25.4267 4.67128L24.5481 6.64296H25.5608L27.9354 1.27649ZM18.0728 2.12847C18.6147 2.12847 19.0545 2.60942 19.0545 3.20355C19.0545 3.79722 18.6147 4.27863 18.0728 4.27863C17.5301 4.27863 17.0903 3.79769 17.0903 3.20355C17.0903 2.60942 17.5301 2.12847 18.0728 2.12847ZM16.1484 1.33707H17.0908V1.74757C17.3938 1.45966 17.7866 1.28588 18.2155 1.28588C19.1748 1.28588 19.9525 2.15477 19.9525 3.22657C19.9525 4.29836 19.1743 5.16725 18.2155 5.16725C17.7866 5.16725 17.3938 4.99347 17.0908 4.70557V6.64343H16.1484V1.33707ZM13.6358 2.09888C14.2265 2.09888 14.7054 2.60378 14.7054 3.22657C14.7054 3.84982 14.2269 4.35472 13.6358 4.35472C13.0452 4.35472 12.5667 3.84982 12.5667 3.22657C12.5662 2.60378 13.0448 2.09888 13.6358 2.09888ZM13.6358 1.21449C12.5822 1.21449 11.7277 2.11579 11.7277 3.22704C11.7277 4.33875 12.5818 5.23958 13.6358 5.23958C14.6899 5.23958 15.5439 4.33875 15.5439 3.22704C15.5435 2.11532 14.6895 1.21449 13.6358 1.21449Z" fill="black"/>
</svg>
