<svg width="28" height="9" viewBox="0 0 28 9" fill="none" xmlns="http://www.w3.org/2000/svg">
<path d="M0.0935002 6.1848C0.0935002 5.73823 0.086447 5.36314 0.0645752 5.0285H0.827309L0.8635 5.60333H0.884802C1.05728 5.29988 1.37382 4.94043 1.96393 4.94043C2.42459 4.94043 2.78401 5.22824 2.93491 5.6583H2.94965C3.07191 5.44307 3.21539 5.28361 3.38082 5.17232C3.5751 5.02083 3.79866 4.94043 4.08592 4.94043C4.66876 4.94043 5.2583 5.37902 5.2583 6.6241V8.91238H4.39518V6.76706C4.39518 6.12161 4.19385 5.73823 3.76931 5.73823C3.46731 5.73823 3.24403 5.97771 3.1507 6.25699C3.12912 6.35185 3.10753 6.47222 3.10753 6.58326V8.91246H2.2442V6.6628C2.2442 6.12161 2.0502 5.73823 1.63977 5.73823C1.30948 5.73823 1.08649 6.02549 1.00663 6.2964C0.970936 6.39197 0.956402 6.50397 0.956402 6.61517V8.91246H0.0935002V6.1848Z" fill="#003D79"/>
<path d="M8.62129 7.97944C8.62129 8.32996 8.63554 8.67259 8.67123 8.91238H7.87267L7.81531 8.482H7.79351C7.5775 8.78538 7.21067 8.99989 6.75827 8.99989C6.05296 8.99989 5.65735 8.4343 5.65735 7.84375C5.65735 6.86223 6.44074 6.36851 7.73645 6.37633V6.31259C7.73645 6.05732 7.64255 5.63453 7.0238 5.63453C6.67827 5.63453 6.31884 5.75442 6.08153 5.92155L5.90898 5.28361C6.16795 5.10787 6.62113 4.94043 7.17476 4.94043C8.29742 4.94043 8.62136 5.73065 8.62136 6.57537V7.97944H8.62129ZM7.75775 7.01483C7.13166 6.99863 6.53493 7.14997 6.53493 7.74012C6.53493 8.12287 6.75835 8.29861 7.03855 8.29861C7.39042 8.29861 7.64989 8.04263 7.7289 7.76374C7.7502 7.69171 7.75768 7.61257 7.75768 7.54867V7.01483H7.75775Z" fill="#003D79"/>
<path d="M9.23249 6.18472C9.23249 5.73815 9.22501 5.36307 9.20435 5.02842H9.98054L10.0236 5.61139H10.0455C10.1964 5.30786 10.5779 4.94043 11.1604 4.94043C11.7721 4.94043 12.4047 5.37902 12.4047 6.60783V8.91238H11.5202V6.71975C11.5202 6.1611 11.3327 5.73807 10.8511 5.73807C10.499 5.73807 10.2538 6.01728 10.1606 6.31259C10.132 6.40018 10.1247 6.51984 10.1247 6.63105V8.91238H9.23263V6.18472H9.23249Z" fill="#003D79"/>
<path d="M16.2404 3.46826V7.81956C16.2404 8.21819 16.2553 8.64935 16.2693 8.91229H15.4785L15.4424 8.29851H15.4278C15.2192 8.72897 14.7946 8.99972 14.2842 8.99972C13.4495 8.99972 12.7883 8.21037 12.7883 7.01473C12.7806 5.71437 13.5142 4.94026 14.356 4.94026C14.8377 4.94026 15.1832 5.16362 15.3414 5.45183H15.356V3.46826H16.2404ZM15.3561 6.64715C15.3561 6.56785 15.3489 6.47204 15.3342 6.39188C15.2551 6.00992 14.975 5.69857 14.5719 5.69857C14.0036 5.69857 13.6867 6.2569 13.6867 6.98259C13.6867 7.69177 14.0036 8.21053 14.565 8.21053C14.9239 8.21053 15.2408 7.93922 15.327 7.51643C15.3489 7.429 15.356 7.33287 15.356 7.22941V6.64715H15.3561Z" fill="#003D79"/>
<path d="M16.8663 8.91228V5.02832H17.7588V8.91228H16.8663Z" fill="#003D79"/>
<path d="M18.3841 6.28092C18.3841 5.7545 18.3769 5.3791 18.3558 5.02858H19.1256L19.1538 5.76951H19.1831C19.3558 5.22003 19.7654 5.02858 20.1403 5.02858C20.2261 5.02858 20.2766 5.01262 20.3481 5.02858V5.89027C20.2766 5.87416 20.1977 5.85836 20.0896 5.85836C19.6647 5.85836 19.377 6.16126 19.2981 6.5993C19.2842 6.68729 19.2695 6.79146 19.2695 6.90322V8.91254H18.3843V6.28092H18.3841Z" fill="#003D79"/>
<path d="M20.7585 8.91228V5.02832H21.6499V8.91228H20.7585Z" fill="#003D79"/>
<path d="M27.2021 0.921121C26.7606 0.362794 26.2911 0.61538 25.9182 0.820892C25.7614 0.906746 24.6285 1.61877 24.6285 1.61877C24.0079 1.90248 23.5246 1.59287 23.3348 1.3323C23.3153 1.30482 23.2983 1.27907 23.2855 1.25387L23.2417 1.16905C23.1739 1.04204 23.0925 0.898295 22.9927 0.756679C22.9393 0.679829 22.8797 0.603058 22.8141 0.530473C22.3897 0.0549199 21.7108 -0.277675 20.5764 0.326778C20.0395 0.671852 18.2896 1.78021 18.2896 1.78021C17.6324 2.08043 17.1292 1.71474 16.9661 1.44667C16.9588 1.43656 16.9517 1.42448 16.947 1.41437L16.9255 1.37369L16.8146 1.17284C16.767 1.08983 16.7145 1.00445 16.6539 0.916856C16.6 0.840401 16.5399 0.764262 16.4748 0.690966C16.053 0.218493 15.378 -0.113471 14.2536 0.479451C13.5736 0.909747 11.9923 1.91235 11.9923 1.91235C11.9919 1.9129 11.9919 1.9129 11.9918 1.9129C11.3411 2.32527 10.8342 2.64602 10.8342 2.64602L11.4331 3.46128C11.685 3.72753 12.1589 4.16414 12.8917 3.796C12.8917 3.796 14.9144 2.49745 14.9223 2.49374C16.6515 1.44162 17.5051 2.4469 17.882 3.11691C17.8952 3.13784 17.906 3.16059 17.9175 3.18097L17.9185 3.18191C17.923 3.19005 17.9262 3.19763 17.93 3.20529L17.973 3.28278C18.1564 3.59168 18.4467 3.79119 18.7921 3.78202C18.9826 3.77776 19.1119 3.70873 19.3003 3.59286L21.2573 2.33443C21.2586 2.33372 21.2595 2.33301 21.2615 2.33246C23.0122 1.26762 23.88 2.3387 24.2506 3.00871C24.2794 3.06668 24.3124 3.12189 24.3456 3.17346C24.5291 3.44935 24.7823 3.62998 25.1037 3.62129C25.3158 3.61648 25.5539 3.47526 25.5891 3.44935L27.9356 1.94821C27.9357 1.94821 27.6956 1.54682 27.2021 0.921121Z" fill="url(#paint0_linear_61_7615)"/>
<defs>
<linearGradient id="paint0_linear_61_7615" x1="12.2676" y1="5.88628" x2="31.156" y2="-1.98208" gradientUnits="userSpaceOnUse">
<stop stop-color="#FDB913"/>
<stop offset="0.2247" stop-color="#FFCB05"/>
<stop offset="0.3933" stop-color="#FAA61A"/>
<stop offset="0.5281" stop-color="#FFCB05"/>
<stop offset="0.6461" stop-color="#FAA61A"/>
<stop offset="0.6683" stop-color="#FCB415"/>
<stop offset="0.6975" stop-color="#FFC10E"/>
<stop offset="0.7285" stop-color="#FFC907"/>
<stop offset="0.764" stop-color="#FFCB05"/>
<stop offset="0.7974" stop-color="#FFCB05"/>
<stop offset="1" stop-color="#FFCB05"/>
</linearGradient>
</defs>
</svg>
