<svg width="28" height="9" viewBox="0 0 28 9" fill="none" xmlns="http://www.w3.org/2000/svg">
<path fill-rule="evenodd" clip-rule="evenodd" d="M8.03749 4.79062C8.14973 3.57467 7.61136 2.47643 7.03247 1.83602C6.46102 1.20384 5.60638 0.616857 4.34863 0.512372C3.73434 0.461366 3.12698 0.572261 2.62247 0.767907C2.07754 0.979212 1.50074 1.36025 1.1307 1.78167C0.888636 2.05735 0.687454 2.3084 0.514415 2.65683C0.000971474 3.69055 -0.0891765 4.83375 0.327467 5.92498C0.52916 6.45322 0.738017 6.75198 1.08144 7.16498C1.35356 7.49217 1.81482 7.83909 2.20392 8.04211C2.66043 8.28029 3.15289 8.43826 3.76495 8.48821C4.3791 8.5383 5.00135 8.42443 5.50065 8.2297C6.02837 8.02389 6.38375 7.76808 6.73732 7.46433C6.8177 7.39528 6.92018 7.29057 6.98948 7.21218C7.61396 6.50675 7.94506 5.79156 8.03749 4.79062Z" fill="#2086C9"/>
<path fill-rule="evenodd" clip-rule="evenodd" d="M1.75335 3.32903C1.92365 3.32156 2.27373 3.86139 3.44728 3.49464C3.71544 3.41085 3.96817 3.30641 4.22545 3.21186C4.80043 3.00056 5.34076 2.78669 5.94807 3.01901C6.06036 3.06195 6.21577 3.14139 6.29457 3.20696C6.41919 3.31067 6.38914 3.43896 6.38914 3.63598V5.21401C6.38914 5.30751 6.40909 5.65164 6.36304 5.7092C6.31401 5.71341 6.12181 5.59693 6.00557 5.55045C5.5685 5.37573 5.08967 5.43768 4.66325 5.55641C3.87058 5.77719 2.99417 6.27979 2.14581 5.97329C1.66107 5.79816 1.72596 5.71863 1.72596 5.35833V3.80919C1.72591 3.6852 1.70228 3.41506 1.75335 3.32903Z" fill="white"/>
<path fill-rule="evenodd" clip-rule="evenodd" d="M25.3334 4.79533C25.3167 4.64323 25.3289 4.38449 25.3309 4.22282C25.333 4.05212 25.3843 3.89796 25.4555 3.7796C25.7912 3.22146 26.6105 3.22568 26.9373 3.78446C27.0137 3.91508 27.0589 4.04965 27.0605 4.23248C27.0618 4.37616 27.0763 4.66837 27.0569 4.79767L25.3334 4.79533ZM25.3329 5.66752L27.0602 5.66866L27.0611 6.53357L27.9282 6.53124C27.9409 6.05657 27.9291 5.56537 27.9291 5.08882C27.9291 4.66489 27.9675 4.1083 27.8544 3.72878C27.6582 3.06964 27.0377 2.49039 26.1893 2.49195C25.3469 2.4935 24.7212 3.08204 24.5338 3.73862C24.4251 4.1197 24.4617 4.66841 24.4617 5.09844C24.4617 5.57416 24.455 6.05455 24.4622 6.53357L25.3308 6.53183L25.3329 5.66752Z" fill="#2086C9"/>
<path fill-rule="evenodd" clip-rule="evenodd" d="M15.3935 4.79496C15.3783 4.64336 15.3874 4.3816 15.3916 4.22249C15.4037 3.76783 15.7525 3.36189 16.2586 3.3623C16.7632 3.36276 17.1157 3.77058 17.1233 4.23211C17.1262 4.40486 17.134 4.62491 17.1224 4.79757L15.3935 4.79496ZM15.3929 5.66747L17.1238 5.67168L17.1252 6.53375L17.9892 6.53288C18.0048 6.06128 17.99 5.5634 17.99 5.08887C17.99 4.66296 18.0287 4.10835 17.9156 3.72685C17.7234 3.0787 17.1056 2.49203 16.2586 2.49194C15.4115 2.49185 14.7947 3.07137 14.5974 3.73299C14.4865 4.10482 14.525 4.67706 14.525 5.09848C14.525 5.33904 14.525 5.57956 14.525 5.82012C14.525 6.04755 14.5129 6.30899 14.5271 6.53366L15.3911 6.53265L15.3929 5.66747Z" fill="#2086C9"/>
<path fill-rule="evenodd" clip-rule="evenodd" d="M10.4286 3.36252C10.6211 3.35524 10.9603 3.35002 11.1435 3.37127C12.1814 3.49169 12.5321 4.85247 11.6597 5.45895C11.313 5.69993 10.8628 5.68528 10.4249 5.66115L10.4286 3.36252ZM9.56025 6.5332C10.0194 6.53897 10.4819 6.53361 10.9414 6.53375C11.3973 6.53389 11.7097 6.43517 12.0336 6.25074C13.2992 5.53038 13.4007 3.58491 12.0321 2.77398C11.73 2.59496 11.3736 2.49203 10.9414 2.49208C10.4828 2.49212 10.0195 2.48571 9.55872 2.49208L9.56025 6.5332Z" fill="#2086C9"/>
<path fill-rule="evenodd" clip-rule="evenodd" d="M20.3636 6.53325C20.3642 5.86257 20.3644 5.19193 20.3644 4.5213C20.3644 4.14218 20.3547 3.94457 20.5494 3.6937C20.6778 3.52823 20.9149 3.36029 21.2338 3.36253C21.5628 3.36487 21.7843 3.53272 21.9172 3.70414C22.1086 3.95089 22.0937 4.16613 22.0937 4.53087L22.0944 6.53384L22.9621 6.5305C22.9721 6.05377 22.9627 5.56679 22.9627 5.08891C22.9627 4.66699 23.001 4.10684 22.8884 3.72905C22.6919 3.07005 22.0737 2.49103 21.224 2.49194C20.3787 2.49286 19.7606 3.07934 19.5678 3.73716C19.4575 4.1132 19.4954 4.67633 19.4954 5.09853L19.4962 6.53352L20.3636 6.53325Z" fill="#2086C9"/>
</svg>
