<svg width="28" height="9" viewBox="0 0 28 9" fill="none" xmlns="http://www.w3.org/2000/svg">
<path d="M7.70483 0H0.0646515V8.51899H7.70483V0Z" fill="white"/>
<path fill-rule="evenodd" clip-rule="evenodd" d="M3.1366 5.7493L3.94966 5.01645C3.81484 4.82698 3.68622 4.63153 3.56351 4.43418C2.61957 2.91534 2.06337 1.36757 2.46642 0H0.0645142V1.47679L3.1366 5.7493Z" fill="#E7470B"/>
<path fill-rule="evenodd" clip-rule="evenodd" d="M4.42191 3.54087C4.47245 3.05928 4.60266 2.14881 5.39658 1.47443C6.08415 0.890251 6.94277 0.778379 7.7047 1.13861V0H3.46503C3.1849 1.387 3.92104 2.91012 4.42191 3.54087Z" fill="#E7470B"/>
<path fill-rule="evenodd" clip-rule="evenodd" d="M5.44914 2.15205L5.44635 2.15467C4.64878 2.87661 4.84515 4.01029 5.58641 5.02782C6.15944 5.81453 6.9249 6.36543 7.7047 5.94778V2.5961C7.00435 1.79655 6.16361 1.50498 5.44914 2.15205Z" fill="#E7470B"/>
<path fill-rule="evenodd" clip-rule="evenodd" d="M0.0645142 3.22461V8.51892H0.0649973L2.37686 6.43446L0.0645142 3.22461Z" fill="#E7470B"/>
<path fill-rule="evenodd" clip-rule="evenodd" d="M4.26814 5.43774C4.04264 5.64599 3.76129 5.90197 3.44902 6.1836L3.74884 6.60059C4.18426 7.20644 4.81854 8.25364 5.60615 7.97036L5.63509 8.01021L5.07603 8.51886H7.7047V6.50301C6.35205 7.3232 5.19016 6.57685 4.26814 5.43774Z" fill="#E7470B"/>
<path fill-rule="evenodd" clip-rule="evenodd" d="M2.99942 7.29893L2.68874 6.86743C2.05205 7.43781 1.3798 8.03649 0.836456 8.51878H3.77851C3.5872 8.06595 3.23978 7.6328 2.99942 7.29893Z" fill="#E7470B"/>
<path fill-rule="evenodd" clip-rule="evenodd" d="M14.0705 3.55939C14.7739 3.42212 15.2311 2.74343 15.2311 1.87642C15.2311 0.725426 14.3374 0 12.805 0H9.77415V0.0386993C10.393 0.417696 10.379 1.02843 10.379 1.6107V6.89341C10.379 7.48828 10.393 8.10544 9.77415 8.47756V8.51626H11.2335C12.6599 8.51626 13.7517 8.54332 14.5694 8.11543C15.4362 7.66114 15.9629 6.84688 15.9629 5.85019C15.9629 4.58189 15.115 3.80538 14.0705 3.55939ZM11.568 0.784801L12.5264 0.803115C13.2378 0.803115 13.9658 1.1909 13.9658 2.08425C13.9658 3.14546 13.3226 3.4302 12.4048 3.4302L11.568 3.43206V3.4302V0.784801V0.784801ZM12.4923 7.64001L11.568 7.64167V4.2844V4.23638L12.5611 4.23211C13.7187 4.23211 14.6739 4.71158 14.6739 5.96678C14.6739 7.19688 13.6712 7.64001 12.4923 7.64001Z" fill="#005667"/>
<path fill-rule="evenodd" clip-rule="evenodd" d="M18.2857 6.89507C18.2857 7.62029 18.274 8.13826 18.8891 8.53909V8.57779H16.8344V8.53909C17.4502 8.13826 17.4395 7.62029 17.4395 6.89507V1.71992C17.4395 0.995203 17.4502 0.426894 16.8355 0.0386579V0H18.5411V0.0130517C18.5875 0.168553 18.6616 0.253576 18.7155 0.336485C18.769 0.419105 18.8776 0.595075 18.8776 0.595075L22.7892 6.47476V1.66983C22.7892 0.945068 22.8011 0.426894 22.1854 0.0386579V0H24.2288V0.0386579C23.625 0.426894 23.625 0.945068 23.625 1.66983V9C23.2533 8.83493 22.2118 7.8701 21.4713 6.75946C20.1433 4.76739 18.2857 2.00039 18.2857 2.00039V6.89507V6.89507Z" fill="#005667"/>
<path fill-rule="evenodd" clip-rule="evenodd" d="M26.133 1.54304C26.133 0.947927 26.1254 0.418152 25.5318 0.0386993V0H27.9355V0.0386993C27.3404 0.406965 27.3351 0.960771 27.3351 1.54304V6.98792C27.3351 7.56945 27.3215 8.15674 27.9355 8.53764V8.57609H25.5318V8.53764C26.1494 8.15272 26.133 7.57401 26.133 6.99199V1.54304Z" fill="#005667"/>
</svg>
