<svg width="28" height="9" viewBox="0 0 28 9" fill="none" xmlns="http://www.w3.org/2000/svg">
<path d="M4.68523 0C5.96417 0.00452716 7.28438 0.30332 8.64125 0.900905L8.70543 0.928068L8.72835 0.991449V0.995976C8.83837 1.32646 8.93463 1.65694 9.01256 1.98742C9.09049 2.31791 9.15467 2.64839 9.20051 2.97887C9.26468 3.41348 9.30136 3.84356 9.31052 4.27817V4.78521C9.28302 5.88078 9.09049 6.97636 8.72835 8.07193L8.70543 8.13531L8.64125 8.16247C7.35772 8.72384 6.06961 9 4.78608 9C4.75399 9 4.7219 9 4.68523 9V8.69215C4.7219 8.69215 4.75399 8.69215 4.78608 8.69215C6.00543 8.69215 7.22937 8.4341 8.45331 7.90895C8.98506 6.27917 9.13175 4.6494 8.89338 3.01962C8.84754 2.70272 8.78336 2.37676 8.70543 2.05533C8.63667 1.75654 8.54957 1.45322 8.45331 1.15443C7.15602 0.593058 5.9 0.312374 4.68523 0.307847V0ZM0.92173 0.905433C2.12275 0.298793 3.36961 0 4.65772 0C4.66689 0 4.67606 0 4.68523 0V0.307847C4.67606 0.307847 4.66689 0.307847 4.65772 0.307847C3.43378 0.307847 2.25569 0.588531 1.11426 1.15443C0.651271 2.24095 0.389981 3.34557 0.376229 4.47284C0.357893 5.59105 0.591679 6.73642 1.10968 7.90443C2.30153 8.416 3.49338 8.67857 4.68523 8.69215V9C3.43378 8.98642 2.18234 8.71026 0.930898 8.16247L0.848385 8.08551C0.316636 6.90845 0.0690982 5.7495 0.0645142 4.61318V4.53169C0.0645142 4.50905 0.0645142 4.49095 0.0645142 4.46831C0.0782663 3.28672 0.357893 2.12324 0.848385 0.982394L0.92173 0.905433Z" fill="#003399"/>
<path fill-rule="evenodd" clip-rule="evenodd" d="M4.76774 7.0126C4.70356 6.14791 4.74482 5.24701 4.48353 4.42306C4.24058 3.65345 3.31918 3.21431 3.30085 2.36773C3.28251 1.70676 3.79134 0.941674 4.74482 0.941674C5.63871 0.937147 6.19338 1.58 6.25756 2.2953C6.33548 3.12377 5.31783 3.68061 5.05195 4.46833C4.77691 5.27417 4.85484 6.16602 4.76774 7.0126Z" fill="#003399"/>
<path fill-rule="evenodd" clip-rule="evenodd" d="M5.1207 6.80423C5.08403 6.05272 5.08403 5.3329 5.2949 4.69457C5.52868 3.97023 6.01459 3.35906 6.75721 3.15987C7.26604 3.02405 8.01323 3.61258 7.89405 4.21469C7.7932 4.6991 7.30271 5.26952 6.51425 5.3329C6.14753 5.36459 5.99167 5.65433 5.76247 5.82184C6.7893 5.72224 7.45398 5.32385 7.91697 4.90735C7.98573 5.26047 8.03157 5.85353 7.75194 6.05725C7.20186 6.44206 6.69303 6.12968 6.04668 6.31077C5.68454 6.41489 5.45992 6.64125 5.1207 6.80423Z" fill="#003399"/>
<path fill-rule="evenodd" clip-rule="evenodd" d="M4.41935 6.80423C4.46061 6.05272 4.45602 5.3329 4.24974 4.69457C4.01595 3.97023 3.53005 3.35906 2.78743 3.15987C2.2786 3.02405 1.52682 3.61258 1.65059 4.21469C1.75144 4.6991 2.24193 5.26952 3.03039 5.3329C3.39253 5.36459 3.55297 5.65433 3.78217 5.82184C2.75076 5.72224 2.09066 5.32385 1.62767 4.90735C1.55891 5.26047 1.51307 5.85353 1.7927 6.05725C2.34278 6.44206 2.85161 6.12968 3.49796 6.31077C3.8601 6.41489 4.08013 6.64125 4.41935 6.80423Z" fill="#003399"/>
<path fill-rule="evenodd" clip-rule="evenodd" d="M6.86265 7.92247V7.80023L6.95433 7.7776L6.86265 7.64178V7.41542L7.27522 7.98132L7.12853 8.01754L7.02768 7.8772L6.86265 7.92247ZM6.86265 7.41542V7.64178L6.79848 7.55124L6.77097 7.82287L6.86265 7.80023V7.92247L6.75722 7.9451L6.73888 8.11261L6.59219 8.14883L6.68846 7.4109L6.83515 7.37468L6.86265 7.41542ZM5.49661 8.31633V8.19862H5.5287C5.57912 8.1941 5.61121 8.18957 5.62496 8.18504C5.6433 8.18052 5.66163 8.16693 5.6708 8.15335C5.68455 8.13524 5.68914 8.11714 5.68914 8.0945C5.68455 8.07186 5.67997 8.05376 5.66622 8.04017C5.65705 8.02659 5.63871 8.01754 5.62038 8.01301C5.60204 8.00848 5.56079 8.00848 5.49661 8.01301V7.8953C5.53328 7.8953 5.5562 7.89078 5.56537 7.89078C5.58829 7.88625 5.60663 7.87267 5.62038 7.85909C5.63413 7.84551 5.63871 7.8274 5.63413 7.80476C5.63413 7.78213 5.62496 7.76402 5.61121 7.75496C5.60204 7.74138 5.58371 7.73233 5.5562 7.73233C5.54703 7.73233 5.5287 7.73233 5.49661 7.73685V7.61915C5.54703 7.61462 5.58371 7.61462 5.60663 7.61915C5.63413 7.61915 5.66163 7.6282 5.68455 7.64178C5.70747 7.65084 5.72581 7.66895 5.74415 7.69158C5.7579 7.71422 5.76707 7.74138 5.77165 7.77307C5.77624 7.80476 5.76707 7.83645 5.75331 7.86361C5.73956 7.89078 5.71664 7.91341 5.68455 7.93152C5.7304 7.94058 5.76707 7.95869 5.78999 7.98585C5.81749 8.01301 5.83124 8.0447 5.83583 8.08545C5.83583 8.11714 5.83124 8.14883 5.82208 8.18052C5.80832 8.21221 5.78999 8.23484 5.76707 8.25748C5.73956 8.27559 5.71206 8.28917 5.67539 8.29822C5.65247 8.30275 5.59287 8.30728 5.50578 8.31633H5.49661ZM6.36299 7.93605L6.5051 7.95416C6.49593 8.03112 6.47301 8.0945 6.43175 8.13977C6.3905 8.18052 6.3309 8.21221 6.25756 8.22579C6.16588 8.23937 6.08337 8.22126 6.01461 8.17146C5.94126 8.11714 5.9 8.04017 5.87708 7.93152C5.85875 7.81834 5.8725 7.72327 5.92292 7.65084C5.96876 7.5784 6.04211 7.53313 6.13837 7.51502C6.22547 7.50144 6.29423 7.51502 6.35841 7.55577C6.39508 7.5784 6.42717 7.61462 6.45009 7.66895L6.31715 7.72327C6.3034 7.69158 6.28048 7.66442 6.25297 7.65084C6.22089 7.63273 6.1888 7.6282 6.15213 7.63273C6.1017 7.64178 6.06503 7.66895 6.03753 7.70969C6.01002 7.75496 6.00544 7.81382 6.01919 7.8953C6.03753 7.98132 6.06503 8.04017 6.1017 8.07186C6.13837 8.10355 6.18421 8.11714 6.23464 8.10808C6.27131 8.09903 6.29882 8.08092 6.32174 8.05376C6.34466 8.02659 6.35841 7.98585 6.36299 7.93605ZM5.49661 7.61915V7.73685C5.47827 7.73685 5.45994 7.74138 5.43702 7.74138L5.3545 7.75044L5.36826 7.90889L5.46452 7.89983C5.47369 7.89983 5.48744 7.89983 5.49661 7.8953V8.01301C5.49661 8.01301 5.49661 8.01301 5.49202 8.01301L5.38201 8.02207L5.39576 8.20768L5.49661 8.19862V8.31633L5.26741 8.33897L5.20323 7.64631L5.48286 7.62367C5.48744 7.61915 5.49202 7.61915 5.49661 7.61915ZM4.61189 8.07639V7.95868C4.64398 7.95868 4.66231 7.95416 4.67607 7.94963C4.6944 7.9451 4.70815 7.93152 4.72191 7.91794C4.73107 7.89983 4.73566 7.88172 4.73566 7.86361C4.74024 7.83645 4.73107 7.81834 4.71732 7.80023C4.70357 7.78213 4.68523 7.77307 4.66231 7.76854C4.64856 7.76854 4.63481 7.76402 4.61189 7.76402V7.64631C4.68065 7.64631 4.72191 7.65084 4.74483 7.65989C4.78608 7.66895 4.81817 7.69158 4.84568 7.7278C4.87318 7.76402 4.88693 7.80929 4.88235 7.86361C4.88235 7.90436 4.87318 7.94058 4.85943 7.97227C4.84109 7.99943 4.82275 8.02207 4.79983 8.04017C4.77233 8.05376 4.74941 8.06281 4.72191 8.07186C4.6944 8.07639 4.65773 8.07639 4.61189 8.07639ZM4.61189 7.64631V7.76402C4.59814 7.76402 4.5798 7.76402 4.55688 7.76402L4.48812 7.75949V7.95868H4.56147C4.5798 7.95868 4.59814 7.95868 4.61189 7.95868V8.07639C4.60272 8.07639 4.58897 8.07639 4.57522 8.07639H4.48354L4.47895 8.33897L4.33685 8.33444L4.3506 7.64178L4.57522 7.64631C4.58897 7.64631 4.60272 7.64631 4.61189 7.64631ZM3.2871 8.00848V7.79571C3.32836 7.80476 3.35586 7.80476 3.36961 7.80476C3.38795 7.80023 3.4017 7.79571 3.41545 7.78213C3.42462 7.76854 3.43379 7.75496 3.43837 7.73233C3.44296 7.70969 3.43837 7.69158 3.42921 7.67347C3.42004 7.65537 3.4017 7.64631 3.37878 7.63726C3.36961 7.63273 3.33753 7.6282 3.2871 7.61915V7.50144L3.34669 7.5105C3.42004 7.52408 3.47046 7.53766 3.50255 7.55577C3.53464 7.57388 3.55756 7.60104 3.57131 7.63726C3.58506 7.66895 3.58965 7.70969 3.58048 7.75044C3.57131 7.80023 3.54839 7.84098 3.51172 7.86814C3.47963 7.8953 3.42921 7.90889 3.36503 7.90889C3.39253 7.93152 3.41545 7.95416 3.42921 7.97679C3.44754 8.00396 3.46588 8.0447 3.4888 8.10355L3.54839 8.25295L3.38337 8.22126L3.31002 8.05376C3.30085 8.04017 3.29627 8.02207 3.2871 8.00848ZM3.6905 7.5784L3.82802 7.59198L3.79593 7.96774C3.79135 8.02659 3.79135 8.06734 3.79135 8.08092C3.79593 8.11261 3.80968 8.13524 3.82802 8.15335C3.85094 8.17599 3.87844 8.18504 3.9197 8.18957C3.96096 8.1941 3.99304 8.18504 4.01138 8.17146C4.0343 8.15788 4.04805 8.13977 4.05722 8.11714C4.0618 8.0945 4.06639 8.05376 4.07097 7.99943L4.10306 7.61462L4.24517 7.6282L4.21308 7.99038C4.20849 8.07639 4.19933 8.13524 4.18557 8.16693C4.17641 8.19862 4.15807 8.23032 4.13973 8.24842C4.11681 8.27106 4.08472 8.28917 4.04805 8.29822C4.01596 8.3118 3.97012 8.3118 3.91511 8.30728C3.84635 8.30275 3.79593 8.28917 3.76384 8.27106C3.73175 8.25295 3.70425 8.23031 3.68591 8.20768C3.66758 8.18052 3.65841 8.15335 3.65382 8.12619C3.64924 8.08545 3.64924 8.02659 3.65382 7.94963L3.6905 7.5784ZM2.57658 7.78213L2.60408 7.66895L2.90204 7.74591L2.8287 8.01301C2.79203 8.03565 2.74618 8.04923 2.68201 8.05376C2.62242 8.05828 2.56741 8.05376 2.5124 8.04017C2.43905 8.02207 2.37946 7.99038 2.33821 7.94963C2.29237 7.90436 2.26486 7.85003 2.25111 7.79118C2.24194 7.7278 2.24194 7.66442 2.26028 7.60104C2.27861 7.53313 2.3107 7.47428 2.35654 7.42448C2.3978 7.37921 2.45281 7.35204 2.51698 7.33846C2.56741 7.32488 2.627 7.32941 2.69118 7.34752C2.77369 7.37015 2.83787 7.40184 2.87454 7.45164C2.91121 7.49691 2.92955 7.55577 2.92496 7.61915L2.78286 7.61009C2.78286 7.57388 2.77369 7.54219 2.75077 7.51502C2.72785 7.49239 2.70034 7.46975 2.65909 7.4607C2.5995 7.44712 2.54907 7.45164 2.50323 7.47881C2.45739 7.50597 2.4253 7.56029 2.40238 7.63273C2.37946 7.71422 2.38405 7.7776 2.40697 7.8274C2.43447 7.8772 2.47573 7.90889 2.53074 7.92247C2.56282 7.93152 2.59033 7.93152 2.62242 7.93152C2.6545 7.92699 2.68201 7.91794 2.70951 7.90889L2.73243 7.82287L2.57658 7.78213ZM3.2871 7.50144L3.04873 7.4607L2.92955 8.1443L3.06707 8.16693L3.11749 7.88172L3.14958 7.88625C3.18167 7.89078 3.20459 7.89983 3.21834 7.90436C3.23209 7.91341 3.24126 7.927 3.25501 7.94058C3.2596 7.95416 3.27335 7.97679 3.2871 8.00848V7.79571C3.27335 7.79571 3.2596 7.79118 3.24126 7.79118L3.14041 7.77307L3.16792 7.60104L3.27793 7.61915C3.28252 7.61915 3.2871 7.61915 3.2871 7.61915V7.50144Z" fill="#003399"/>
<path fill-rule="evenodd" clip-rule="evenodd" d="M25.1346 6.65481V5.37815H25.703V3.13267L25.1346 4.25541V1.4531H27.367L27.9355 7.90883H25.703V6.65481H25.1346ZM25.1346 1.4531V4.25541L24.5662 5.37815H25.1346V6.65481H24.062L23.6219 7.84092H22.2375V6.36507L23.7823 3.07382H23.466L24.3462 1.4531H25.1346ZM22.2375 3.6035L22.9297 1.98277L22.2375 1.60249V3.6035ZM16.7321 2.98328C16.7642 2.79766 16.7642 2.61658 16.7321 2.44454V2.98328ZM22.2375 1.60249V3.6035L22.1458 3.8208C20.7798 2.85652 18.7628 3.73479 18.6482 4.7534C18.5336 5.81728 19.3541 6.67744 21.449 6.03458L20.7294 7.93599C17.9652 8.23931 16.8925 7.15732 16.7321 5.89424V5.17895C16.7733 4.84847 16.8604 4.52704 16.9796 4.22825C18.3411 0.8872 20.5506 1.63871 21.3895 1.57533L21.5132 1.2041L22.2375 1.60249ZM22.2375 6.36507L21.5453 7.84092H22.2375V6.36507ZM14.2475 7.80018C15.7282 7.51044 17.1813 5.7539 15.7236 4.35501C16.292 4.05621 16.645 3.51748 16.7321 2.98328V2.44454C16.6312 1.8877 16.1957 1.43499 15.3752 1.42141L14.2475 1.39877V2.63921H14.7151C15.2148 2.63921 15.1506 3.91587 14.5271 3.91587H14.2475V4.89374C14.9214 5.0205 14.683 5.94404 14.2475 6.22925V7.80018ZM16.7321 5.17895V5.89424C16.7046 5.65883 16.7046 5.41889 16.7321 5.17895ZM12.2947 1.35803L11.3825 3.10551L11.7905 3.07382L10.6903 7.84092H13.8395C13.9771 7.84092 14.11 7.82734 14.2475 7.80018V6.22925C14.1696 6.28358 14.0825 6.31527 13.9954 6.31527H12.8631L13.239 4.88016H14.0871C14.1467 4.88016 14.2017 4.88468 14.2475 4.89374V3.91587H13.4591L13.7754 2.63921H14.2475V1.39877L12.2947 1.35803Z" fill="#003399"/>
</svg>
