<svg width="28" height="7" viewBox="0 0 28 7" fill="none" xmlns="http://www.w3.org/2000/svg">
<path fill-rule="evenodd" clip-rule="evenodd" d="M1.26559 3.5104C1.31537 3.60209 1.69898 4.02618 1.76975 4.10277L2.29832 4.6769C2.4828 4.92802 2.60774 5.03899 2.60286 5.486C2.59945 5.80172 2.35591 6.07263 2.19387 6.18256C2.03232 6.29249 1.98352 6.29354 1.76194 6.29354C1.58429 6.29354 1.40664 6.29406 1.22898 6.29354C1.0606 6.29301 0.939566 6.20549 0.861477 6.11431C0.739463 5.97156 0.73263 5.92572 0.73263 5.67929C0.73263 5.56102 0.720917 1.27118 0.735558 1.13989C0.75264 0.986715 0.867334 0.865845 0.957136 0.805931C1.09282 0.715279 1.18652 0.691313 1.38028 0.691313C1.76097 0.690792 2.01817 0.644945 2.29783 0.847089C2.53551 1.01745 2.66631 1.26545 2.66582 1.58898C2.66533 1.95003 2.48036 2.17458 2.3315 2.36838C2.10407 2.66431 1.32513 3.32909 1.26559 3.5104ZM3.16266 0.691313C3.2837 0.683498 3.73223 0.676204 3.83277 0.698086C4.15586 0.768941 4.51312 1.05444 4.51653 1.43841C4.51946 1.73955 4.48286 1.81405 4.34864 2.00004C4.17587 2.23866 3.72979 2.70755 3.4921 2.92116C3.39449 3.00868 2.97867 3.42808 2.98599 3.49946L4.57608 5.23957C4.75666 5.44067 5.48825 6.18673 5.52632 6.29197L3.20952 6.29249C3.23002 6.24039 3.28029 6.17058 3.31201 6.11952C3.43402 5.92311 3.49601 5.73555 3.49894 5.48496C3.5043 4.94625 3.29298 4.69305 2.98794 4.35857L2.22804 3.49946C2.3642 3.32284 2.27635 3.41558 2.46572 3.20979C2.63215 3.02848 2.87081 2.83259 3.00307 2.67837C3.08165 2.58668 3.1695 2.48769 3.23929 2.37203C3.39059 2.11987 3.48185 1.87553 3.45062 1.49208C3.40523 0.934095 3.19634 0.853341 3.16266 0.691313ZM4.90893 0.690271C5.58684 0.678288 6.01292 0.6215 6.00169 1.6317L5.98412 2.60856C5.97533 3.62606 5.98851 4.67221 5.98412 5.69648L3.94648 3.48904C3.96698 3.42496 4.14268 3.23584 4.18661 3.18999L4.46626 2.91959C4.52044 2.86333 4.55314 2.84145 4.60292 2.78622C4.75422 2.61846 4.80302 2.61117 4.99629 2.34755C5.20616 2.05996 5.24081 1.91929 5.24179 1.47124C5.24276 0.986194 4.96896 0.863761 4.90893 0.690271ZM1.1709 0.00725095C0.742879 0.0317376 0.354386 0.305779 0.195279 0.711111C0.088395 0.98411 0.071313 1.11227 0.071313 1.44936V4.07932C0.071313 4.65554 0.0556952 5.25572 0.0718011 5.82933C0.0859547 6.34095 0.422226 6.70147 0.733606 6.8734C0.964457 7.00104 1.14016 7 1.43006 7H5.53267C6.00706 7.00052 6.34626 6.62228 6.50244 6.29562C6.6225 6.0445 6.62396 5.8658 6.62396 5.55008L6.62445 1.17115C6.62396 0.904398 6.52196 0.681935 6.41019 0.524075C6.29843 0.366735 6.15738 0.234924 5.9563 0.128121C5.71813 0.00152005 5.55317 0.00620897 5.26082 0.00620897H1.98303C1.72143 0.00516698 1.42713 -0.00785781 1.1709 0.00725095Z" fill="#2356A7"/>
<path fill-rule="evenodd" clip-rule="evenodd" d="M13.8316 5.25303L14.6349 5.25512L14.6286 2.91847C14.6667 2.95442 15.1694 4.0386 15.1904 4.08393L15.7502 5.25616L16.8288 5.25564L16.8327 1.76083C16.7443 1.75249 16.102 1.74884 16.0445 1.76447L16.0274 4.05788C16 4.02818 15.4378 2.8002 15.3612 2.62515L14.9566 1.75822L13.8345 1.75718L13.8316 5.25303Z" fill="#2356A7"/>
<path fill-rule="evenodd" clip-rule="evenodd" d="M22.0871 4.59105L22.0856 3.76006C22.2257 3.73766 22.5649 3.76527 22.6938 3.80331C22.8665 3.85488 23.0076 3.94762 22.9973 4.17529C22.9876 4.39515 22.8695 4.49987 22.6967 4.55197C22.5688 4.59052 22.2262 4.6098 22.0871 4.59105ZM22.0881 3.14008L22.0856 2.42164C22.235 2.41278 22.5112 2.41122 22.6401 2.44352C22.7992 2.48363 22.9173 2.5795 22.9139 2.7806C22.908 3.15102 22.3233 3.17186 22.0881 3.14008ZM21.212 5.25323C21.3321 5.26677 22.2438 5.25531 22.4453 5.25531C23.1169 5.25583 23.972 5.08859 23.8656 4.15289C23.8353 3.8851 23.7075 3.66993 23.5039 3.54906C23.4068 3.49123 23.3536 3.50947 23.2599 3.47821C23.255 3.40631 23.2897 3.4532 23.438 3.35734C23.9368 3.03536 23.8841 2.22314 23.4112 1.92044C23.1013 1.72194 22.7884 1.75789 22.3848 1.75789C22.2296 1.75789 21.2803 1.74643 21.2125 1.76362L21.212 5.25323Z" fill="#2356A7"/>
<path fill-rule="evenodd" clip-rule="evenodd" d="M8.47373 3.78353C8.57086 3.76269 8.97253 3.77884 9.07014 3.80124C9.2473 3.84188 9.36492 3.94139 9.36541 4.15447C9.3659 4.36079 9.33662 4.44519 9.13603 4.52334C8.96374 4.59002 8.67286 4.60722 8.47422 4.58898V3.87522L8.47373 3.78353ZM8.47617 2.42374C8.58355 2.40394 8.91689 2.42166 9.0228 2.44719C9.20143 2.49043 9.28342 2.56337 9.28147 2.78062C9.28 2.98224 9.15994 3.05206 9.00035 3.10207C8.89444 3.13489 8.58403 3.16407 8.47373 3.13802L8.47617 2.42374ZM7.59767 5.25585C8.33073 5.22615 9.86469 5.44341 10.1756 4.69839C10.2459 4.53011 10.2542 4.30504 10.2385 4.10029C10.2151 3.78561 9.94669 3.52199 9.65776 3.48656C9.59919 3.47927 9.61676 3.49229 9.60261 3.45687C9.62067 3.42561 9.59626 3.4454 9.65141 3.42977C9.6724 3.42404 9.68216 3.42248 9.70559 3.41415C9.7461 3.39956 9.77392 3.38341 9.8071 3.36153C9.9667 3.25785 10.1517 3.03538 10.1541 2.80198C10.158 2.42791 10.1605 2.15387 9.79783 1.92984C9.47815 1.73238 9.18971 1.75791 8.78023 1.75791C8.38979 1.75791 7.98812 1.76781 7.59865 1.75687L7.59767 5.25585Z" fill="#2356A7"/>
<path fill-rule="evenodd" clip-rule="evenodd" d="M24.9364 2.42152C25.2834 2.41683 25.9052 2.38505 25.7748 2.93209C25.7036 3.23218 25.2477 3.21603 24.9369 3.20926L24.9359 2.50123L24.9364 2.42152ZM24.0603 5.25363L24.9344 5.25467L24.9354 3.87665C25.1033 3.84435 25.3146 3.88134 25.4156 3.96834C25.6104 4.13558 25.688 4.51382 25.7807 4.79047C25.8056 4.86549 25.8285 4.93947 25.85 5.01762C25.8671 5.0791 25.8949 5.21247 25.9169 5.25623H26.8037C26.8134 5.13484 26.4332 4.08452 26.3483 3.85372C26.2463 3.5776 26.1389 3.62709 26.0726 3.50726C26.342 3.4734 26.6304 3.15612 26.6563 2.85655C26.6978 2.38244 26.6021 2.11049 26.3112 1.93908C25.9984 1.75465 25.6709 1.75934 25.2707 1.75934C24.8715 1.75934 24.4581 1.74788 24.0613 1.75986L24.0603 5.25363Z" fill="#2356A7"/>
<path fill-rule="evenodd" clip-rule="evenodd" d="M17.1284 5.24947L18.0035 5.25415L18.004 3.67607C18.1173 3.7339 18.8806 5.08952 19.026 5.22863C19.0685 5.26926 19.1524 5.2552 19.2281 5.2552C19.375 5.2552 20.0402 5.26353 20.1266 5.25311C20.1217 5.15152 19.6171 4.4711 19.5429 4.36638C19.3354 4.07307 19.1183 3.80007 18.9167 3.49998C18.8347 3.37754 18.843 3.39005 18.9304 3.26761L19.7274 2.19698C19.7854 2.12143 20.0114 1.82655 20.0412 1.76143L19.0084 1.76664C18.9611 1.77497 18.7615 2.08548 18.7259 2.13706C18.6087 2.30743 18.4872 2.47779 18.3671 2.64503C18.3193 2.71172 18.0343 3.13007 18.004 3.1457V1.75934L17.1289 1.7583L17.1284 5.24947Z" fill="#2356A7"/>
<path fill-rule="evenodd" clip-rule="evenodd" d="M11.9277 2.48974C11.9614 2.51475 12.183 3.38376 12.2132 3.49525C12.2381 3.58591 12.2952 3.7594 12.3025 3.8438L11.4982 3.84432L11.7056 3.16495C11.7423 3.05033 11.7725 2.943 11.8096 2.8263C11.8286 2.76691 11.8457 2.70804 11.8618 2.65646C11.8794 2.60071 11.8921 2.51318 11.9277 2.48974ZM10.1546 5.25308C10.3674 5.2635 10.6954 5.25568 10.9218 5.25516C11.0282 5.25516 11.0253 5.22599 11.0682 5.1369C11.1678 4.93267 11.2205 4.73678 11.2835 4.51015C11.4065 4.49399 12.202 4.50441 12.3894 4.50441C12.4748 4.50441 12.4973 4.49399 12.5358 4.56693C12.5837 4.65654 12.651 4.94413 12.6876 5.05875C12.7598 5.28382 12.7891 5.25308 12.9121 5.25256L13.716 5.24995L12.4729 1.75931L11.4123 1.75879C11.2581 2.02658 11.1903 2.32719 11.0795 2.61738C10.8745 3.15348 10.6607 3.824 10.4557 4.37625C10.3952 4.53984 10.1609 5.10512 10.1546 5.25308Z" fill="#2356A7"/>
<path fill-rule="evenodd" clip-rule="evenodd" d="M27.9355 5.2552V1.7583H27.0614L27.0609 5.25467L27.9355 5.2552Z" fill="#2356A7"/>
</svg>
